%TF.GenerationSoftware,KiCad,Pcbnew,8.0.3*%
%TF.CreationDate,2024-11-10T13:10:44-08:00*%
%TF.ProjectId,LCSP072rev2,4c435350-3037-4327-9265-76322e6b6963,rev?*%
%TF.SameCoordinates,Original*%
%TF.FileFunction,Copper,L1,Top*%
%TF.FilePolarity,Positive*%
%FSLAX46Y46*%
G04 Gerber Fmt 4.6, Leading zero omitted, Abs format (unit mm)*
G04 Created by KiCad (PCBNEW 8.0.3) date 2024-11-10 13:10:44*
%MOMM*%
%LPD*%
G01*
G04 APERTURE LIST*
G04 Aperture macros list*
%AMRoundRect*
0 Rectangle with rounded corners*
0 $1 Rounding radius*
0 $2 $3 $4 $5 $6 $7 $8 $9 X,Y pos of 4 corners*
0 Add a 4 corners polygon primitive as box body*
4,1,4,$2,$3,$4,$5,$6,$7,$8,$9,$2,$3,0*
0 Add four circle primitives for the rounded corners*
1,1,$1+$1,$2,$3*
1,1,$1+$1,$4,$5*
1,1,$1+$1,$6,$7*
1,1,$1+$1,$8,$9*
0 Add four rect primitives between the rounded corners*
20,1,$1+$1,$2,$3,$4,$5,0*
20,1,$1+$1,$4,$5,$6,$7,0*
20,1,$1+$1,$6,$7,$8,$9,0*
20,1,$1+$1,$8,$9,$2,$3,0*%
G04 Aperture macros list end*
%TA.AperFunction,ComponentPad*%
%ADD10RoundRect,0.250000X-0.600000X-0.600000X0.600000X-0.600000X0.600000X0.600000X-0.600000X0.600000X0*%
%TD*%
%TA.AperFunction,ComponentPad*%
%ADD11R,2.400000X1.600000*%
%TD*%
%TA.AperFunction,ComponentPad*%
%ADD12O,2.400000X1.600000*%
%TD*%
%TA.AperFunction,SMDPad,CuDef*%
%ADD13C,0.450000*%
%TD*%
%TA.AperFunction,ViaPad*%
%ADD14C,0.350000*%
%TD*%
%TA.AperFunction,Conductor*%
%ADD15C,0.127000*%
%TD*%
%TA.AperFunction,Conductor*%
%ADD16C,0.200000*%
%TD*%
G04 APERTURE END LIST*
D10*
%TO.P,J3,1,Pin_1*%
%TO.N,Net-(J3-Pin_1)*%
X132175000Y-104200000D03*
%TD*%
D11*
%TO.P,J1,1,Pin_1*%
%TO.N,/A15*%
X121208800Y-67589400D03*
D12*
%TO.P,J1,2,Pin_2*%
%TO.N,/A14*%
X121208800Y-70129400D03*
%TO.P,J1,3,Pin_3*%
%TO.N,/A13*%
X121208800Y-72669400D03*
%TO.P,J1,4,Pin_4*%
%TO.N,/A12*%
X121208800Y-75209400D03*
%TO.P,J1,5,Pin_5*%
%TO.N,/A11*%
X121208800Y-77749400D03*
%TO.P,J1,6,Pin_6*%
%TO.N,/A10*%
X121208800Y-80289400D03*
%TO.P,J1,7,Pin_7*%
%TO.N,/A9*%
X121208800Y-82829400D03*
%TO.P,J1,8,Pin_8*%
%TO.N,/A8*%
X121208800Y-85369400D03*
%TO.P,J1,9,Pin_9*%
%TO.N,/A21*%
X121208800Y-87909400D03*
%TO.P,J1,10,Pin_10*%
%TO.N,/A20*%
X121208800Y-90449400D03*
%TO.P,J1,11,Pin_11*%
%TO.N,/WE*%
X121208800Y-92989400D03*
%TO.P,J1,12,Pin_12*%
%TO.N,/RST*%
X121208800Y-95529400D03*
%TO.P,J1,13,Pin_13*%
%TO.N,VPP*%
X121208800Y-98069400D03*
%TO.P,J1,14,Pin_14*%
%TO.N,/WP*%
X121208800Y-100609400D03*
%TO.P,J1,15,Pin_15*%
%TO.N,/A19*%
X121208800Y-103149400D03*
%TO.P,J1,16,Pin_16*%
%TO.N,/A18*%
X121208800Y-105689400D03*
%TO.P,J1,17,Pin_17*%
%TO.N,/A17*%
X121208800Y-108229400D03*
%TO.P,J1,18,Pin_18*%
%TO.N,/A7*%
X121208800Y-110769400D03*
%TO.P,J1,19,Pin_19*%
%TO.N,/A6*%
X121208800Y-113309400D03*
%TO.P,J1,20,Pin_20*%
%TO.N,/A5*%
X121208800Y-115849400D03*
%TO.P,J1,21,Pin_21*%
%TO.N,/A4*%
X121208800Y-118389400D03*
%TO.P,J1,22,Pin_22*%
%TO.N,/A3*%
X121208800Y-120929400D03*
%TO.P,J1,23,Pin_23*%
%TO.N,/A2*%
X121208800Y-123469400D03*
%TO.P,J1,24,Pin_24*%
%TO.N,/A1*%
X121208800Y-126009400D03*
%TO.P,J1,25,Pin_25*%
%TO.N,/A0*%
X136448800Y-126009400D03*
%TO.P,J1,26,Pin_26*%
%TO.N,/CE1*%
X136448800Y-123469400D03*
%TO.P,J1,27,Pin_27*%
%TO.N,GND*%
X136448800Y-120929400D03*
%TO.P,J1,28,Pin_28*%
%TO.N,/OE*%
X136448800Y-118389400D03*
%TO.P,J1,29,Pin_29*%
%TO.N,/DQ0*%
X136448800Y-115849400D03*
%TO.P,J1,30,Pin_30*%
%TO.N,/DQ8*%
X136448800Y-113309400D03*
%TO.P,J1,31,Pin_31*%
%TO.N,/DQ1*%
X136448800Y-110769400D03*
%TO.P,J1,32,Pin_32*%
%TO.N,/DQ9*%
X136448800Y-108229400D03*
%TO.P,J1,33,Pin_33*%
%TO.N,/DQ2*%
X136448800Y-105689400D03*
%TO.P,J1,34,Pin_34*%
%TO.N,/DQ10*%
X136448800Y-103149400D03*
%TO.P,J1,35,Pin_35*%
%TO.N,/DQ3*%
X136448800Y-100609400D03*
%TO.P,J1,36,Pin_36*%
%TO.N,/DQ11*%
X136448800Y-98069400D03*
%TO.P,J1,37,Pin_37*%
%TO.N,VCC*%
X136448800Y-95529400D03*
%TO.P,J1,38,Pin_38*%
%TO.N,/DQ4*%
X136448800Y-92989400D03*
%TO.P,J1,39,Pin_39*%
%TO.N,/DQ12*%
X136448800Y-90449400D03*
%TO.P,J1,40,Pin_40*%
%TO.N,/DQ5*%
X136448800Y-87909400D03*
%TO.P,J1,41,Pin_41*%
%TO.N,/DQ13*%
X136448800Y-85369400D03*
%TO.P,J1,42,Pin_42*%
%TO.N,/DQ6*%
X136448800Y-82829400D03*
%TO.P,J1,43,Pin_43*%
%TO.N,/DQ14*%
X136448800Y-80289400D03*
%TO.P,J1,44,Pin_44*%
%TO.N,/DQ7*%
X136448800Y-77749400D03*
%TO.P,J1,45,Pin_45*%
%TO.N,/DQ15*%
X136448800Y-75209400D03*
%TO.P,J1,46,Pin_46*%
%TO.N,GND*%
X136448800Y-72669400D03*
%TO.P,J1,47,Pin_47*%
%TO.N,/CE2*%
X136448800Y-70129400D03*
%TO.P,J1,48,Pin_48*%
%TO.N,/A16*%
X136448800Y-67589400D03*
%TD*%
D10*
%TO.P,J2,1,Pin_1*%
%TO.N,Net-(J2-Pin_1)*%
X131800000Y-89400000D03*
%TD*%
D13*
%TO.P,U1,A1*%
%TO.N,N/C*%
X124587000Y-94145800D03*
%TO.P,U1,A2*%
X125387000Y-94145800D03*
%TO.P,U1,A3,F-A20*%
%TO.N,/A20*%
X126187000Y-94145800D03*
%TO.P,U1,A4,A11*%
%TO.N,/A11*%
X126987000Y-94145800D03*
%TO.P,U1,A5,A15*%
%TO.N,/A15*%
X127787000Y-94145800D03*
%TO.P,U1,A6,A14*%
%TO.N,/A14*%
X128587000Y-94145800D03*
%TO.P,U1,A7,A13*%
%TO.N,/A13*%
X129387000Y-94145800D03*
%TO.P,U1,A8,A12*%
%TO.N,/A12*%
X130187000Y-94145800D03*
%TO.P,U1,A9,GND*%
%TO.N,GND*%
X130987000Y-94145800D03*
%TO.P,U1,A10,(VCCQ)\u002A\u002A*%
%TO.N,Net-(J2-Pin_1)*%
X131787000Y-94145800D03*
%TO.P,U1,A11*%
%TO.N,N/C*%
X132587000Y-94145800D03*
%TO.P,U1,A12*%
X133387000Y-94145800D03*
%TO.P,U1,B3,A16*%
%TO.N,/A16*%
X126187000Y-94945800D03*
%TO.P,U1,B4,A8*%
%TO.N,/A8*%
X126987000Y-94945800D03*
%TO.P,U1,B5,A10*%
%TO.N,/A10*%
X127787000Y-94945800D03*
%TO.P,U1,B6,A9*%
%TO.N,/A9*%
X128587000Y-94945800D03*
%TO.P,U1,B7,DQ15*%
%TO.N,/DQ15*%
X129387000Y-94945800D03*
%TO.P,U1,B8,S-~{WE}*%
%TO.N,VCC*%
X130187000Y-94945800D03*
%TO.P,U1,B9,DQ14*%
%TO.N,/DQ14*%
X130987000Y-94945800D03*
%TO.P,U1,B10,DQ7*%
%TO.N,/DQ7*%
X131787000Y-94945800D03*
%TO.P,U1,C3,F-~{WE}*%
%TO.N,/WE*%
X126187000Y-95745800D03*
%TO.P,U1,C4,F-RY/~{BY}*%
%TO.N,unconnected-(U1-F-RY{slash}~{BY}-PadC4)*%
X126987000Y-95745800D03*
%TO.P,U1,C5,F-A21*%
%TO.N,/A21*%
X127787000Y-95745800D03*
%TO.P,U1,C6,S-A17*%
%TO.N,GND*%
X128587000Y-95745800D03*
%TO.P,U1,C7,DQ13*%
%TO.N,/DQ13*%
X129387000Y-95745800D03*
%TO.P,U1,C8,DQ6*%
%TO.N,/DQ6*%
X130187000Y-95745800D03*
%TO.P,U1,C9,DQ4*%
%TO.N,/DQ4*%
X130987000Y-95745800D03*
%TO.P,U1,C10,DQ5*%
%TO.N,/DQ5*%
X131787000Y-95745800D03*
%TO.P,U1,D3,GND*%
%TO.N,GND*%
X126187000Y-96545800D03*
%TO.P,U1,D4,F-~{RST}*%
%TO.N,/RST*%
X126987000Y-96545800D03*
%TO.P,U1,D5,T1*%
%TO.N,unconnected-(U1-T1-PadD5)*%
X127787000Y-96545800D03*
%TO.P,U1,D6,T2*%
%TO.N,unconnected-(U1-T2-PadD6)*%
X128587000Y-96545800D03*
%TO.P,U1,D7,DQ12*%
%TO.N,/DQ12*%
X129387000Y-96545800D03*
%TO.P,U1,D8,S-CE_{2}*%
%TO.N,GND*%
X130187000Y-96545800D03*
%TO.P,U1,D9,S-VCC*%
%TO.N,VCC*%
X130987000Y-96545800D03*
%TO.P,U1,D10,F-VCC*%
X131787000Y-96545800D03*
%TO.P,U1,E3,F-~{WP}*%
%TO.N,/WP*%
X126187000Y-97345800D03*
%TO.P,U1,E4,F-VPP*%
%TO.N,VPP*%
X126987000Y-97345800D03*
%TO.P,U1,E5,F-A19*%
%TO.N,/A19*%
X127787000Y-97345800D03*
%TO.P,U1,E6,DQ11*%
%TO.N,/DQ11*%
X128587000Y-97345800D03*
%TO.P,U1,E7,(F/S-VCC)\u002A\u002A*%
%TO.N,VCC*%
X129387000Y-97345800D03*
%TO.P,U1,E8,DQ10*%
%TO.N,/DQ10*%
X130187000Y-97345800D03*
%TO.P,U1,E9,DQ2*%
%TO.N,/DQ2*%
X130987000Y-97345800D03*
%TO.P,U1,E10,DQ3*%
%TO.N,/DQ3*%
X131787000Y-97345800D03*
%TO.P,U1,F3,S-~{LB}*%
%TO.N,VCC*%
X126187000Y-98145800D03*
%TO.P,U1,F4,S-~{UB}*%
X126987000Y-98145800D03*
%TO.P,U1,F5,S-~{OE}*%
X127787000Y-98145800D03*
%TO.P,U1,F6,T3*%
%TO.N,unconnected-(U1-T3-PadF6)*%
X128587000Y-98145800D03*
%TO.P,U1,F7,DQ9*%
%TO.N,/DQ9*%
X129387000Y-98145800D03*
%TO.P,U1,F8,DQ8*%
%TO.N,/DQ8*%
X130187000Y-98145800D03*
%TO.P,U1,F9,DQ0*%
%TO.N,/DQ0*%
X130987000Y-98145800D03*
%TO.P,U1,F10,DQ1*%
%TO.N,/DQ1*%
X131787000Y-98145800D03*
%TO.P,U1,G3,A18*%
%TO.N,/A18*%
X126187000Y-98945800D03*
%TO.P,U1,G4,F-A17*%
%TO.N,/A17*%
X126987000Y-98945800D03*
%TO.P,U1,G5,A7*%
%TO.N,/A7*%
X127787000Y-98945800D03*
%TO.P,U1,G6,A6*%
%TO.N,/A6*%
X128587000Y-98945800D03*
%TO.P,U1,G7,A3*%
%TO.N,/A3*%
X129387000Y-98945800D03*
%TO.P,U1,G8,A2*%
%TO.N,/A2*%
X130187000Y-98945800D03*
%TO.P,U1,G9,A1*%
%TO.N,/A1*%
X130987000Y-98945800D03*
%TO.P,U1,G10,S(C)\u002A\u002A-~{CE}_{1}*%
%TO.N,VCC*%
X131787000Y-98945800D03*
%TO.P,U1,H1*%
%TO.N,N/C*%
X124587000Y-99745800D03*
%TO.P,U1,H2*%
X125387000Y-99745800D03*
%TO.P,U1,H3,(F-~{CE}_{2})\u002A\u002A*%
%TO.N,/CE2*%
X126187000Y-99745800D03*
%TO.P,U1,H4,A5*%
%TO.N,/A5*%
X126987000Y-99745800D03*
%TO.P,U1,H5,A4*%
%TO.N,/A4*%
X127787000Y-99745800D03*
%TO.P,U1,H6,A0*%
%TO.N,/A0*%
X128587000Y-99745800D03*
%TO.P,U1,H7,F-~{CE}_{1}*%
%TO.N,/CE1*%
X129387000Y-99745800D03*
%TO.P,U1,H8,GND*%
%TO.N,GND*%
X130187000Y-99745800D03*
%TO.P,U1,H9,F-~{OE}*%
%TO.N,/OE*%
X130987000Y-99745800D03*
%TO.P,U1,H10,(S-~{CE}_{1})/(F-~{BE}_{2})\u002A\u002A*%
%TO.N,Net-(J3-Pin_1)*%
X131787000Y-99745800D03*
%TO.P,U1,H11*%
%TO.N,N/C*%
X132587000Y-99745800D03*
%TO.P,U1,H12*%
X133387000Y-99745800D03*
%TD*%
D14*
%TO.N,/DQ11*%
X128955800Y-97713800D03*
%TO.N,/DQ13*%
X129794000Y-95326200D03*
%TO.N,/DQ12*%
X129006600Y-96143400D03*
%TO.N,VCC*%
X129775000Y-93575000D03*
X128143000Y-98526600D03*
X132130800Y-99288600D03*
%TO.N,GND*%
X125300000Y-96550000D03*
X130600000Y-96150000D03*
X131000000Y-93700000D03*
X128193800Y-95351600D03*
X130187000Y-100265800D03*
%TO.N,/A16*%
X125780800Y-94564200D03*
%TO.N,/A0*%
X128600200Y-100289400D03*
%TO.N,/DQ2*%
X131368800Y-96977200D03*
%TO.N,/DQ8*%
X130559457Y-98516700D03*
%TO.N,/A5*%
X126990000Y-100304600D03*
%TO.N,/A13*%
X123952000Y-72669400D03*
%TO.N,/A15*%
X123756252Y-85893748D03*
%TO.N,/DQ9*%
X129794000Y-97739200D03*
%TO.N,/A11*%
X123376500Y-86673500D03*
%TO.N,/A4*%
X127800000Y-100304600D03*
%TO.N,/A12*%
X124714000Y-75209400D03*
%TO.N,/A21*%
X124739400Y-95351600D03*
%TO.N,/DQ15*%
X128975000Y-91975000D03*
%TO.N,/A10*%
X122625000Y-86025000D03*
%TO.N,/DQ14*%
X131379000Y-94554000D03*
%TO.N,/DQ0*%
X131375000Y-99350000D03*
%TO.N,/CE1*%
X129400000Y-100279200D03*
%TO.N,/CE2*%
X128000000Y-78675000D03*
X125700000Y-100300000D03*
%TD*%
D15*
%TO.N,/A4*%
X127800000Y-100304600D02*
X127787000Y-100291600D01*
X127787000Y-100291600D02*
X127787000Y-99745800D01*
%TO.N,/A5*%
X126987000Y-100301600D02*
X126987000Y-99745800D01*
X126990000Y-100304600D02*
X126987000Y-100301600D01*
%TO.N,/A0*%
X128587000Y-100276200D02*
X128587000Y-99745800D01*
X128600200Y-100289400D02*
X128587000Y-100276200D01*
%TO.N,/DQ14*%
X130987200Y-94945800D02*
X130987000Y-94945800D01*
X131379000Y-94554000D02*
X130987200Y-94945800D01*
%TO.N,/DQ8*%
X130557900Y-98516700D02*
X130187000Y-98145800D01*
X130559457Y-98516700D02*
X130557900Y-98516700D01*
%TO.N,/DQ12*%
X129006600Y-96143400D02*
X129387000Y-96523800D01*
X129387000Y-96523800D02*
X129387000Y-96545800D01*
%TO.N,/A14*%
X128587000Y-94145800D02*
X128587000Y-89267800D01*
X128587000Y-89267800D02*
X123266200Y-83947000D01*
X123266200Y-72186800D02*
X121208800Y-70129400D01*
X123266200Y-83947000D02*
X123266200Y-72186800D01*
%TO.N,/A18*%
X123088400Y-100558600D02*
X124701200Y-98945800D01*
X124701200Y-98945800D02*
X126187000Y-98945800D01*
X121208800Y-105689400D02*
X123088400Y-103809800D01*
X123088400Y-103809800D02*
X123088400Y-100558600D01*
%TO.N,/A6*%
X128175000Y-106343200D02*
X128175000Y-99357800D01*
X128175000Y-99357800D02*
X128587000Y-98945800D01*
X121208800Y-113309400D02*
X128175000Y-106343200D01*
%TO.N,Net-(J2-Pin_1)*%
X131787000Y-89421600D02*
X131800600Y-89408000D01*
X131787000Y-94145800D02*
X131787000Y-89421600D01*
%TO.N,/DQ11*%
X128587000Y-97345800D02*
X128587800Y-97345800D01*
X128587800Y-97345800D02*
X128955800Y-97713800D01*
%TO.N,/DQ1*%
X134670800Y-103378000D02*
X134670800Y-108991400D01*
X131787000Y-98145800D02*
X132820800Y-98145800D01*
X132820800Y-98145800D02*
X134075000Y-99400000D01*
X134075000Y-99400000D02*
X134075000Y-102782200D01*
X134670800Y-108991400D02*
X136448800Y-110769400D01*
X134075000Y-102782200D02*
X134670800Y-103378000D01*
%TO.N,VPP*%
X122328200Y-96950000D02*
X126591200Y-96950000D01*
X121208800Y-98069400D02*
X122328200Y-96950000D01*
X126591200Y-96950000D02*
X126987000Y-97345800D01*
%TO.N,/DQ4*%
X133288200Y-96150000D02*
X131391200Y-96150000D01*
X131391200Y-96150000D02*
X130987000Y-95745800D01*
X136448800Y-92989400D02*
X133288200Y-96150000D01*
%TO.N,/DQ13*%
X129387000Y-95745800D02*
X129387000Y-95733200D01*
X129387000Y-95733200D02*
X129794000Y-95326200D01*
%TO.N,/DQ12*%
X129387000Y-96545800D02*
X129387200Y-96545800D01*
D16*
%TO.N,VCC*%
X135432400Y-96545800D02*
X131787000Y-96545800D01*
D15*
X130987000Y-96545800D02*
X130582800Y-96950000D01*
D16*
X131787000Y-96545800D02*
X130987000Y-96545800D01*
D15*
X131788000Y-98945800D02*
X132130800Y-99288600D01*
X127787000Y-98145800D02*
X128175000Y-97757800D01*
X129775000Y-93575000D02*
X129775000Y-94533800D01*
X128175000Y-97757800D02*
X128175000Y-97177469D01*
X128991200Y-96950000D02*
X129387000Y-97345800D01*
X128143000Y-98501800D02*
X127787000Y-98145800D01*
X131787000Y-98945800D02*
X131788000Y-98945800D01*
D16*
X136448800Y-95529400D02*
X135432400Y-96545800D01*
D15*
X132130800Y-99288600D02*
X132130800Y-99402000D01*
X128175000Y-97177469D02*
X128402469Y-96950000D01*
X129782800Y-96950000D02*
X129387000Y-97345800D01*
X126187000Y-98145800D02*
X127787000Y-98145800D01*
X130582800Y-96950000D02*
X129782800Y-96950000D01*
X128402469Y-96950000D02*
X128991200Y-96950000D01*
X129775000Y-94533800D02*
X130187000Y-94945800D01*
X128143000Y-98526600D02*
X128143000Y-98501800D01*
%TO.N,GND*%
X130987000Y-93713000D02*
X130987000Y-94145800D01*
X130600000Y-96150000D02*
X130204200Y-96545800D01*
X125300000Y-96550000D02*
X125304200Y-96545800D01*
X131000000Y-93700000D02*
X130987000Y-93713000D01*
X130187000Y-96545800D02*
X130187000Y-96533400D01*
X128587000Y-95744800D02*
X128193800Y-95351600D01*
X128587000Y-95745800D02*
X128587000Y-95744800D01*
X125304200Y-96545800D02*
X126187000Y-96545800D01*
X130204200Y-96545800D02*
X130187000Y-96545800D01*
X130187000Y-100265800D02*
X130187000Y-99745800D01*
%TO.N,/A16*%
X126187000Y-94945800D02*
X126162400Y-94945800D01*
X126162400Y-94945800D02*
X125780800Y-94564200D01*
%TO.N,/DQ5*%
X134700000Y-89658200D02*
X136448800Y-87909400D01*
X134700000Y-94125000D02*
X134700000Y-89658200D01*
X131787000Y-95745800D02*
X133079200Y-95745800D01*
X133079200Y-95745800D02*
X134700000Y-94125000D01*
%TO.N,/A3*%
X129387000Y-98945800D02*
X128975000Y-99357800D01*
X128975000Y-99357800D02*
X128975000Y-113163200D01*
X128975000Y-113163200D02*
X121208800Y-120929400D01*
%TO.N,/DQ2*%
X131000200Y-97345800D02*
X131368800Y-96977200D01*
X130987000Y-97345800D02*
X131000200Y-97345800D01*
%TO.N,/A8*%
X126987000Y-94945800D02*
X126575000Y-94533800D01*
X126575000Y-94533800D02*
X126575000Y-90735600D01*
X126575000Y-90735600D02*
X121208800Y-85369400D01*
%TO.N,/DQ6*%
X134442400Y-93850358D02*
X134442400Y-84835800D01*
X132942758Y-95350000D02*
X134442400Y-93850358D01*
X130582800Y-95350000D02*
X132942758Y-95350000D01*
X134442400Y-84835800D02*
X136448800Y-82829400D01*
X130187000Y-95745800D02*
X130582800Y-95350000D01*
%TO.N,/A13*%
X129387000Y-89229600D02*
X123952000Y-83794600D01*
X129387000Y-94145800D02*
X129387000Y-89229600D01*
X123952000Y-83794600D02*
X123952000Y-72669400D01*
%TO.N,/A15*%
X127787000Y-89890200D02*
X127787000Y-94145800D01*
X123790548Y-85893748D02*
X127787000Y-89890200D01*
X123756252Y-85893748D02*
X123790548Y-85893748D01*
%TO.N,/DQ9*%
X129387000Y-98145800D02*
X129387400Y-98145800D01*
X129387400Y-98145800D02*
X129794000Y-97739200D01*
%TO.N,/DQ10*%
X135000000Y-101700600D02*
X135000000Y-99600000D01*
X130591200Y-97750000D02*
X130187000Y-97345800D01*
X133150000Y-97750000D02*
X130591200Y-97750000D01*
X136448800Y-103149400D02*
X135000000Y-101700600D01*
X135000000Y-99600000D02*
X133150000Y-97750000D01*
%TO.N,/A2*%
X130187000Y-98945800D02*
X129775000Y-99357800D01*
X129775000Y-114903200D02*
X121208800Y-123469400D01*
X129775000Y-99357800D02*
X129775000Y-114903200D01*
%TO.N,/A19*%
X122650000Y-100260400D02*
X125160400Y-97750000D01*
X121208800Y-103149400D02*
X122650000Y-101708200D01*
X122650000Y-101708200D02*
X122650000Y-100260400D01*
X127382800Y-97750000D02*
X127787000Y-97345800D01*
X125160400Y-97750000D02*
X127382800Y-97750000D01*
%TO.N,/A11*%
X123376500Y-86673500D02*
X126987000Y-90284000D01*
X126987000Y-90284000D02*
X126987000Y-94145800D01*
%TO.N,/A12*%
X124688600Y-83769200D02*
X124688600Y-75234800D01*
X130187000Y-94145800D02*
X130187000Y-89267600D01*
X130187000Y-89267600D02*
X124688600Y-83769200D01*
X124688600Y-75234800D02*
X124714000Y-75209400D01*
%TO.N,/A7*%
X127375000Y-99357800D02*
X127787000Y-98945800D01*
X127375000Y-104603200D02*
X127375000Y-99357800D01*
X121208800Y-110769400D02*
X127375000Y-104603200D01*
%TO.N,/A21*%
X127775200Y-95745800D02*
X127381000Y-95351600D01*
X127381000Y-95351600D02*
X124739400Y-95351600D01*
X127787000Y-95745800D02*
X127775200Y-95745800D01*
%TO.N,/A9*%
X128175000Y-94533800D02*
X128587000Y-94945800D01*
X128175000Y-89795600D02*
X128175000Y-94533800D01*
X121208800Y-82829400D02*
X128175000Y-89795600D01*
%TO.N,/DQ3*%
X131787000Y-97345800D02*
X133185200Y-97345800D01*
X133185200Y-97345800D02*
X136448800Y-100609400D01*
%TO.N,/DQ15*%
X128975000Y-94533800D02*
X129387000Y-94945800D01*
X128975000Y-91975000D02*
X128975000Y-94533800D01*
%TO.N,/DQ7*%
X132975000Y-93875800D02*
X134175000Y-92675800D01*
X131787000Y-94945800D02*
X132367331Y-94945800D01*
X134175000Y-92675800D02*
X134175000Y-80023200D01*
X132975000Y-94338131D02*
X132975000Y-93875800D01*
X134175000Y-80023200D02*
X136448800Y-77749400D01*
X132367331Y-94945800D02*
X132975000Y-94338131D01*
%TO.N,/A17*%
X126575000Y-102863200D02*
X126575000Y-99357800D01*
X121208800Y-108229400D02*
X126575000Y-102863200D01*
X126575000Y-99357800D02*
X126987000Y-98945800D01*
%TO.N,/A20*%
X126187000Y-94145800D02*
X122490600Y-90449400D01*
X122490600Y-90449400D02*
X121208800Y-90449400D01*
%TO.N,/A10*%
X122625000Y-86025000D02*
X123312200Y-86025000D01*
X127375000Y-94533800D02*
X127787000Y-94945800D01*
X123312200Y-86025000D02*
X127375000Y-90087800D01*
X127375000Y-90087800D02*
X127375000Y-94533800D01*
%TO.N,/A1*%
X130575000Y-116643200D02*
X121208800Y-126009400D01*
X130987000Y-98945800D02*
X130575000Y-99357800D01*
X130575000Y-99357800D02*
X130575000Y-116643200D01*
%TO.N,/DQ0*%
X131375000Y-98533800D02*
X130987000Y-98145800D01*
X131375000Y-99350000D02*
X131375000Y-98533800D01*
%TO.N,Net-(J3-Pin_1)*%
X131787000Y-103812000D02*
X132175000Y-104200000D01*
X131787000Y-99745800D02*
X131787000Y-103812000D01*
%TO.N,/RST*%
X126591200Y-96150000D02*
X123683600Y-96150000D01*
X126987000Y-96545800D02*
X126591200Y-96150000D01*
X123063000Y-95529400D02*
X121208800Y-95529400D01*
X123683600Y-96150000D02*
X123063000Y-95529400D01*
%TO.N,/WP*%
X124472400Y-97345800D02*
X121208800Y-100609400D01*
X126187000Y-97345800D02*
X124472400Y-97345800D01*
%TO.N,/WE*%
X123965200Y-95745800D02*
X121208800Y-92989400D01*
X126187000Y-95745800D02*
X123965200Y-95745800D01*
%TO.N,/OE*%
X130987000Y-112927600D02*
X136448800Y-118389400D01*
X130987000Y-99745800D02*
X130987000Y-112927600D01*
%TO.N,/CE1*%
X129387000Y-100278600D02*
X129387600Y-100279200D01*
X129387000Y-99745800D02*
X129387000Y-100278600D01*
%TO.N,/CE2*%
X126187000Y-99813000D02*
X126187000Y-99745800D01*
X125700000Y-100300000D02*
X126187000Y-99813000D01*
X128000000Y-78578200D02*
X128000000Y-78675000D01*
X136448800Y-70129400D02*
X128000000Y-78578200D01*
%TD*%
M02*
