%TF.GenerationSoftware,KiCad,Pcbnew,8.0.3*%
%TF.CreationDate,2024-11-10T13:10:44-08:00*%
%TF.ProjectId,LCSP072rev2,4c435350-3037-4327-9265-76322e6b6963,rev?*%
%TF.SameCoordinates,Original*%
%TF.FileFunction,Legend,Bot*%
%TF.FilePolarity,Positive*%
%FSLAX46Y46*%
G04 Gerber Fmt 4.6, Leading zero omitted, Abs format (unit mm)*
G04 Created by KiCad (PCBNEW 8.0.3) date 2024-11-10 13:10:44*
%MOMM*%
%LPD*%
G01*
G04 APERTURE LIST*
%ADD10C,0.150000*%
%ADD11C,0.120000*%
G04 APERTURE END LIST*
D10*
X132629581Y-95783333D02*
X132677201Y-95735714D01*
X132677201Y-95735714D02*
X132724820Y-95592857D01*
X132724820Y-95592857D02*
X132724820Y-95497619D01*
X132724820Y-95497619D02*
X132677201Y-95354762D01*
X132677201Y-95354762D02*
X132581962Y-95259524D01*
X132581962Y-95259524D02*
X132486724Y-95211905D01*
X132486724Y-95211905D02*
X132296248Y-95164286D01*
X132296248Y-95164286D02*
X132153391Y-95164286D01*
X132153391Y-95164286D02*
X131962915Y-95211905D01*
X131962915Y-95211905D02*
X131867677Y-95259524D01*
X131867677Y-95259524D02*
X131772439Y-95354762D01*
X131772439Y-95354762D02*
X131724820Y-95497619D01*
X131724820Y-95497619D02*
X131724820Y-95592857D01*
X131724820Y-95592857D02*
X131772439Y-95735714D01*
X131772439Y-95735714D02*
X131820058Y-95783333D01*
X132724820Y-96735714D02*
X132724820Y-96164286D01*
X132724820Y-96450000D02*
X131724820Y-96450000D01*
X131724820Y-96450000D02*
X131867677Y-96354762D01*
X131867677Y-96354762D02*
X131962915Y-96259524D01*
X131962915Y-96259524D02*
X132010534Y-96164286D01*
D11*
%TO.C,C1*%
X133215000Y-96211253D02*
X133215000Y-95688747D01*
X134685000Y-96211253D02*
X134685000Y-95688747D01*
%TD*%
M02*
