M48
; DRILL file {KiCad 8.0.3} date 2024-11-10T13:10:47-0800
; FORMAT={-:-/ absolute / inch / decimal}
; #@! TF.CreationDate,2024-11-10T13:10:47-08:00
; #@! TF.GenerationSoftware,Kicad,Pcbnew,8.0.3
; #@! TF.FileFunction,Plated,1,2,PTH
FMAT,2
INCH
; #@! TA.AperFunction,Plated,PTH,ViaDrill
T1C0.0079
; #@! TA.AperFunction,Plated,PTH,ComponentDrill
T2C0.0276
; #@! TA.AperFunction,Plated,PTH,ComponentDrill
T3C0.0315
%
G90
G05
T1
X4.8278Y-3.3868
X4.8573Y-3.4123
X4.8723Y-3.3816
X4.88Y-2.861
X4.91Y-2.961
X4.911Y-3.754
X4.9331Y-3.8012
X4.9488Y-3.9488
X4.952Y-3.723
X4.9996Y-3.949
X5.0315Y-3.949
X5.0394Y-3.0974
X5.045Y-3.879
X5.047Y-3.754
X5.063Y-3.9484
X5.077Y-3.847
X5.0778Y-3.6211
X5.079Y-3.7852
X5.0945Y-3.948
X5.1093Y-3.6841
X5.11Y-3.753
X5.11Y-3.848
X5.1255Y-3.9475
X5.1401Y-3.8786
X5.1417Y-3.7854
X5.1575Y-3.689
X5.172Y-3.818
X5.1722Y-3.9114
X5.1724Y-3.7226
X5.202Y-3.909
T2
X5.189Y-3.5197
X5.2037Y-4.1024
T3
X4.772Y-2.661
X4.772Y-2.761
X4.772Y-2.861
X4.772Y-2.961
X4.772Y-3.061
X4.772Y-3.161
X4.772Y-3.261
X4.772Y-3.361
X4.772Y-3.461
X4.772Y-3.561
X4.772Y-3.661
X4.772Y-3.761
X4.772Y-3.861
X4.772Y-3.961
X4.772Y-4.061
X4.772Y-4.161
X4.772Y-4.261
X4.772Y-4.361
X4.772Y-4.461
X4.772Y-4.561
X4.772Y-4.661
X4.772Y-4.761
X4.772Y-4.861
X4.772Y-4.961
X5.372Y-2.661
X5.372Y-2.761
X5.372Y-2.861
X5.372Y-2.961
X5.372Y-3.061
X5.372Y-3.161
X5.372Y-3.261
X5.372Y-3.361
X5.372Y-3.461
X5.372Y-3.561
X5.372Y-3.661
X5.372Y-3.761
X5.372Y-3.861
X5.372Y-3.961
X5.372Y-4.061
X5.372Y-4.161
X5.372Y-4.261
X5.372Y-4.361
X5.372Y-4.461
X5.372Y-4.561
X5.372Y-4.661
X5.372Y-4.761
X5.372Y-4.861
X5.372Y-4.961
M30
